<svg width="32" height="32" viewBox="0 0 70 70" xmlns="http://www.w3.org/2000/svg">
  <!-- Beyaz Arka Plan -->
  <rect width="70" height="70" fill="#ffffff"/>

  <!-- Mavi Elmas -->
  <g fill="#1E6BFF">
    <path d="M67.142 23.641L55.405 10.456c-.379-.423-.92-.873-1.488-.873h-37.98c-.568 0-1.109.45-1.489.874L2.711 23.752c-.691.771-.68 1.94.025 2.697L33.462 59.46c.378.407.909.638 1.464.638s1.086-.257 1.464-.664l30.728-33.042c.704-.758.715-1.981.024-2.752zM21.725 23.583l-4.417-10h34.272l-4.188 10H21.725zm24.83 2l-11.99 27.831L22.608 25.583h23.947zM7.586 25.583h12.879l11.766 26.569L7.586 25.583zm29.876 26.735l14.24-26.735H62c.094 0 .179-.029.265-.054L37.462 52.318zM49.543 23.583l3.971-9.44 8.357 9.44H49.543zm-33.829-8.732l3.867 8.732H8.027l7.687-8.732z"/>
    <path d="M35 14.583H23c-.552 0-1 .447-1 1s.448 1 1 1h12c.552 0 1-.447 1-1s-.448-1-1-1z"/>
    <path d="M45 14.583h-5c-.552 0-1 .447-1 1s.448 1 1 1h5c.552 0 1-.447 1-1s-.448-1-1-1z"/>
  </g>
</svg>